<svg xmlns="http://www.w3.org/2000/svg" width="64" height="64"><g transform="translate(-543.398 -940.189) scale(.8351)"><ellipse cx="692.256" cy="1195.318" fill="#e8edf1" rx="28.47" ry="6.802"/><g stroke-width=".508"><path fill="none" stroke="#000" stroke-linecap="round" stroke-linejoin="round" d="M686.517 1152.502c-2.265.19-6.413-.297-7.175-1.461-.064-.783 1.735-1.587 4-1.778h0c.678-.064 1.397-.17 2.074-.19" transform="matrix(1.96878 0 0 1.96566 -677.928 -1115.911)"/><path fill="#f7e481" fill-rule="evenodd" d="m699.552 1185.712.291.957-.375 1.04-1.292 2.955-3.083-.666h-2.917l-.5.54-.792.708-.917 1.664-.458 1.124.041.915.5.333.667.25.375.04.167 1.083.292.874.333.04 1.584-1.497 2.25-1.997-.125.749-.583 1.664-.084 2.039.334.624 1.125-.416 1.5-2.122 1.083-1.456 2.334-2.247 2.375-1.207.584-.041 1 .582 1.167.75.292.29.291-.082.083-.374-.083-.79-.25-1.166-.5-.54-.792-.75-3.75.167-.167-.624.833-2.58.709-1.788-.125-.791-.083-.624z"/><path fill="#f7e481" fill-rule="evenodd" d="m689.717 1188.126-.625 1.123h-7.96l-.541.582-1.292.083-1.292.998-1.125 2.497.667.167 1.042-.458.458-.25v1.082l.125.583h.458l1.5-.957 1.292-.874-.5 1.457-.625 1.456.167.291 1-.374 2.417-1.54 1.417-.998.167-.168.625.208 2.125.042.709-.25-.584 1.373.542 1.082-.459-.957.5-1.498 1.167-1.789.834-.624.25-.333-.959-1.04.584-.666-.042-.416-2.167-.167z"/><path fill="#fcd438" fill-rule="evenodd" d="m673.923 1149.723 2.25-1.54 2.876-1.456 3.292-1.081 1.334-.333 1.083-1.748 1-2.954.5-2.33-.25-2.704.042-2.372-.333-1.913-.5-.708-.626-.208-1 .666-1.833 2.163-2.459 4.328-.458.873-.709-1.872-1.75-2.413-2.75-2.497-3.417-2.33-3.126-1.539-2-.749-1.584-.124-.375.124v2.08l.417 2.913 1.834 3.87 1.916 2.579 2.46 2.704 1.666 1.54c1.125.332-1.709.374-2.542.54l-3.042.25-3.25.874c-.834.374-1.667.54-2.46 1.331l-.54.75c-.043.415.25.457.416.582l1.417.873c1.208.5 2.375.75 3.542 1.04l3.875.458 3.626.167 1.375-.04z"/><path fill="none" stroke="#000" stroke-linecap="round" stroke-linejoin="round" d="M687.766 1151.845h-.021c-.932.085-1.672-.127-1.694-.465-.02-.318.699-.657 1.61-.741h0c.274-.021.55-.021.782 0h.085" transform="matrix(1.96878 0 0 1.96566 -677.928 -1115.911)"/><path fill="#f1950e" fill-rule="evenodd" d="m675.924 1148.142-1.667-.167c-.375-.083-.709-.124-1.084-.333-.125-.124-.333-.291-.208-.457l.125-.167c.25-.292.583-.375.875-.541.542-.167 1.083-.333 1.625-.375l1.917-.167-.208-.208-1.542-1.498-1.125-1.373-.667-1.082-.625-1.705.042-.541s.041-.083.291-.292c.292-.25 1 0 1 0l1.167.458 1.459.957 1.042.749 1.833 1.623s.25.333.25.208c0-.124.209-.916.209-.916l.333-1.29.458-.665.417-.375.583.333.459.999.042 1.664-.209 1.415-.458 1.123v.25l1.208-.292 2.917-.457 4.043.082 2.667.458 2.875 1.04 2.334 1.165 1.917 1.373 1.958 2.371 1.125 1.873.834 2.995.166 2.622-.5 2.163-.916 2.83-1.126 1.705-1.958 2.538-3.917 3.037-.959.541-.917-.04-.208.207 1.125.957-2.875-.333.125.375 1 1.081.083.375-2.583-.749-.292.124 1 1.456h-.292l-1.583-.624-.5-.041-.167.167.75 1.081 1.584 1.665 2.292.998 2.333.79.375-.374-.917-1.58h.667l5.46.457.291-.291-1.25-2.621h.125l2.917.374.208-.208-.125-.291-.958-.79.375-.083 1.833.167.459-.083.042-.25-2.71-2.288v-.208l1.751-.082 1.792-.666.208-.25-.333-.457-.208-.168 1.167-.374.083-.291-.584-.541-1.5-.583-.792-.25.792-.332 4.292-.25.167 3.287-.542 2.871-1.375 4.369-2.5 3.786-2.459 2.33-3.125 2.288-3 1.082-4.084.957-2.084-.083-2.167-.333-2.25-.915-1.959-1.248-1.375-1.373-1.542-1.997h-.25l-.875.79-.208-.124-.125-1.997-.084-.082-.875.707-1.333.583-.167-.25.208-2.08.5-1.997-2.042.332-.458-.082-.042-.292s.084-.082.209-.25l2.958-2.953-.333-.291-2.167-.666-3.375-1.83-2.834-2.789-1.625-2.995-.709-2.58.042-2.787.417-2.372 1.125-2.33 1.958-2.954 2.584-2.663z"/><path fill="#ffcf3c" fill-rule="evenodd" d="m689.009 1174.77.75 1.29s.416.54.5.54c.125.042.708.542.708.542l1 .79 1.292.541 1.625.666.709.082.5-.208-.208-.54-.292-.625-.292-.624 1.209.208 2 .25 2 .25 1.042-.083.167-.291-.5-1.498-.667-.915-.292-.333 1.25.333 1.25.04.792.125.125-.375-.375-.333-.792-.665 1.667.082h.75l.584-.167-.375-.332-1.834-1.54-.792-.624 1.209-.124 1.709-.333.75-.374.041-.291-.291-.333-.25-.333 1.041-.25.334-.25-.167-.332-.792-.5-1.375-.582-1-.208 1.5-.957 1.209-.832.375-.583-.459-.25-1.083-.082-1.25-.291-1.25-.416-1.292 2.163-1.792 2.122-3.71 3.038-1.083.54-1-.123.042.374.792.624.292.291-1.667-.457-.792.041h-.542l.542.707.625.666.042.124-1-.124-1.209-.374-.375-.042-.208.042.458.998.458.749-.875-.458-1.166-.25z"/><path fill="#b66f35" fill-rule="evenodd" d="m680.8 1181.427 3.416-.54c3.042 4.534 6.293 8.903 19.67 1.247-3.418 4.41-16.378 10.818-23.087-.707z"/><path fill="#ffcf3c" fill-rule="evenodd" d="M678.382 1174.23c-.125.123-1.167.956-1.333 1.206a43.102 43.102 0 0 1-1.125 1.248c-.084.041-.792.998-.792.998s.458.25.625.25c.208 0 1-.124 1-.124s.625-.167.75-.25c.125-.04.292-.207.167.124-.125.375-.083.209-.167.708-.125.5-.25.749-.417 1.414-.125.708 0 .833 0 1.249v.665s-.5.208.334.167c.791-.04.625-.082.917-.333.291-.25-.084-.208.5-.457.583-.25.708-.416.708-.416s.042-.042.083.25c.042.249 0 .29 0 .54.042.25-.041.375 0 .624.084.25.084.583.084.583s.25.167.291.082c.042-.082.334-.291.584-.582.208-.25.333-.416.5-.54.167-.125.5-.334.625-.459.125-.167.208-.29.292-.457.125-.167-.042-.541.125.082.166.624.166.708.125 1.124-.084.457-.125.499-.042.54.083 0-.083.168.208.083.292-.124.375-.167.417-.25.042-.082.208-.167.375-.332l.458-.458c.125-.167.292-.374.375-.54.125-.125.375-.292.417-.375.083-.042.25-.5.417-.666.167-.167.125-.208.417-.5.25-.29.583-1.04.75-1.33.125-.25.25-.375.333-.583.125-.25.292-.375.292-.624.041-.208.166-.333.208-.5 0-.208.375-.665.375-1.04 0-.374.083-.416-.083-.374-.208.082-.292.291-.417.333-.083.04-.667.416-.75.499-.083.041-.75.458-.75.54a6.4 6.4 0 0 1-.292.417l-.083-.624.125-.5.042-.707-.042-.208-.542.208-.375.416s-.291.333-.5.5c-.208.167-.542.707-.542.707l-.208-.375s.125-.29.125-.54c.042-.292.083-.541.083-.541s.084-.208-.125-.291c-.208-.042.125-.042-.375-.042-.541 0-.583.042-.917.042-.291 0-.875-.126-1.25-.209-.375-.123-.541-.208-.791-.208-.209 0-.209.083-.584-.04-.375-.125-.625-.125-.625-.125z"/><path fill="none" stroke="#000" stroke-linecap="round" stroke-linejoin="round" d="M691.216 1165.35c-3.683-.106-6.815-2.011-7.704-5.017-.91-3.154.91-6.54 4.254-8.509m3.111-1.249c4.953-1.27 9.822.783 10.944 4.657.93 3.217-1.016 6.73-4.53 8.657m-8.763-13.25a7.352 7.352 0 0 1-.995-.89c-.974-1.036-1.44-2.158-1.037-2.518.381-.339 2.434 1.016 3.408 2.053m.042-.042c.127-.91.508-1.609.826-1.545.338.063.508.846.38 1.757a4.04 4.04 0 0 1-.296 1.037c-.02.02-.02.063-.042.085" transform="matrix(1.96878 0 0 1.96566 -677.928 -1115.911)"/><path fill="none" stroke="#000" stroke-linecap="round" stroke-linejoin="round" d="M685.438 1149.072c-.72-.55-1.44-1.248-2.16-2.074-2.074-2.455-2.306-4.275-2.243-5.926.847-.805 7.705 2.751 8.107 6.01" transform="matrix(1.96878 0 0 1.96566 -677.928 -1115.911)"/><path fill="none" stroke="#000" stroke-linecap="round" stroke-linejoin="round" d="M689.12 1147.04c.318-1.248 2.223-4.339 3.027-4.254.826.085.678 2.096.741 3.387.043.973-.402 3.429-1.354 4.19" transform="matrix(1.96878 0 0 1.96566 -677.928 -1115.911)"/><path stroke="#000" stroke-linecap="round" stroke-linejoin="round" d="M689.861 1158.28c0 1.016-.74 1.841-1.65 1.841-.91 0-1.652-.825-1.652-1.841 0-1.037.741-1.863 1.651-1.863s1.651.826 1.651 1.863zm9.42-1.503c-.593.572-1.651.423-2.35-.296-.72-.741-.825-1.8-.233-2.35.572-.571 1.63-.444 2.35.297.698.72.804 1.778.233 2.35z" transform="matrix(1.96878 0 0 1.96566 -677.928 -1115.911)"/><path fill="#f7df7c" fill-rule="evenodd" stroke="#000" stroke-linecap="round" d="M691.153 1160.735c-.36 1.08 7.175-.529 6.646-2.201-4.763-1.08-1.884-3.196-6.646 2.201z" transform="matrix(1.96878 0 0 1.96566 -677.928 -1115.911)"/><path fill="#c26b29" fill-rule="evenodd" d="M686.842 1174.437c.625.458.458 1.082.208 1.706.917-.874 1.584-.915 2.167-.666-.292-.416-.542-.832-.208-1.373-.542.25-1.25.375-2.167.333z"/><path fill="#d69322" fill-rule="evenodd" d="M682.841 1174.978c-1.125.749-5.334 3.12-3.459 2.746.75-.167 1.5-.458 1.584-.374-.959.332-1.75 2.246-1.292 2.038l4.334-1.83s.167 2.746.5 2.455c.917-.791 2.292-3.704 2.292-3.704l.167-.956-1.959 1.373-.125-1.831-1.958 1.789z"/><path fill="none" stroke="#000" d="M688.972 1165.074s-1.206.995-1.63 1.651c-.275.445 1.27 0 1.27 0s-.338.995-.38 2.096c0 .529 1.248-.53 1.248-.53s.149.742.085 1.101c-.106.424 1.27-1.1 1.27-1.1s-.085 1.227.17 1.016c1.1-.91 2.053-2.434 2.412-3.704.127-.466-1.227.804-1.227.804s.127-.423.106-.995c-.022-.466-1.059.89-1.059.89l.022-1.038" transform="matrix(1.96878 0 0 1.96566 -677.928 -1115.911)"/><path fill="#d59122" fill-rule="evenodd" d="m700.802 1175.81-2.334-2.163 2.626.291s-.334-1.248-.709-1.79c-.375-.54-1.542-1.372-1.542-1.372l2.959.25 3.375 2.662-.25.292-2.625-.292 1.334 1.498-3.543-.5z"/><path fill="#d99926" fill-rule="evenodd" d="M703.969 1167.697s-1.584 1.248-1.75 1.415c-.417.374 2.167.25 2.167.25s-1.5.415-2.417.623c-.5.083 2.042 1.082 2.042 1.082l1.625-.25.583-.416-.5-.665-.333-.124s1.75-.458 1.5-.54c-.083-.042-.375-.625-.5-.667-.083 0-.375-.167-.625-.208-.25 0-1.792-.54-1.792-.54l.042.29z"/><path fill="none" stroke="#000" stroke-linecap="round" d="M697.333 1163.847s-.74-.063-.614.085c.34.339.762.571.762.571s-2.032-.486-1.63-.105c.53.486.868.783.572.72-.656-.128-1.545-.615-1.355-.212.276.508.53.804.53.804s-1.567-.72-1.313-.339c.995 1.609 2.37 1.969 3.535 2.265.36.085-.38-1.037-.38-1.037s1.587.275 3.132.317c.529 0-.487-1.524-.487-1.524s.783.254 1.63.17c.317-.021-.656-.678-.656-.678s1.862.318 1.481-.127c-.423-.508-1.46-1.164-1.46-1.164s1.27.021 1.968-.423c.127-.106-.233-.445-.233-.445s.741-.105.635-.317c-.232-.508-1.672-.762-1.672-.762s2.16-1.249 1.334-1.334c-.699-.085-1.482-.296-1.482-.296l-.212-.085" transform="matrix(1.96878 0 0 1.96566 -677.928 -1115.911)"/><path fill="#d4b04a" fill-rule="evenodd" d="M689.717 1188.084c.25.167-.667 1.498-1.083 2.413.875-.124 1.875.333 2.292.5.208-.417.916-.708 1-.874.25-.5-.667-.583-.709-.79-.125-.5.417-.958.459-1.207z"/><path fill="none" stroke="#000" stroke-linecap="round" stroke-linejoin="round" d="M704.636 1161.476c.38 5.97-3.768 10.075-8.594 10.541-2.413.212-4.466-.889-5.863-3.027" transform="matrix(1.96878 0 0 1.96566 -677.928 -1115.911)"/><path fill="none" stroke="#000" stroke-linecap="round" d="m701.863 1161.582 2.73-.19" transform="matrix(1.96878 0 0 1.96566 -677.928 -1115.911)"/><path fill="none" stroke="#000" d="m694.687 1172.038-.762 1.545c-.508-.296-1.27-.211-2.095 0-1.249.868-.847 1.143-1.376 2.16-.55 1.037 1.905-.741 2.498-1.186.72.17 1.312.106 1.862-.021.254-.508.53-1.016 1.122-1.376-.148-.17-.233-.296-.487-.508.149-.127.212-.339.233-.571" transform="matrix(1.96878 0 0 1.96566 -677.928 -1115.911)"/><path fill="none" stroke="#000" d="m694.349 1172.673-4.043.021c-1.503 1.567-1.037 2.879-.89 2.773l1.546-1.058" transform="matrix(1.96878 0 0 1.96566 -677.928 -1115.911)"/><path fill="none" stroke="#000" d="M690.052 1172.99c-.762-.041-1.312.086-1.926 1.821-.106.296.762-.085 1.122-.275" transform="matrix(1.96878 0 0 1.96566 -677.928 -1115.911)"/><path fill="#d4b04a" fill-rule="evenodd" d="M699.76 1185.796c.292.29 0 1.456-.5 2.912 1.083-.208 1.583.041 2.084.333.791-2.288 1.416-3.578 1.583-4.244.167-.749-.208-.749-.167-1.123z"/><path fill="none" stroke="#000" d="M699.64 1170.916c.466.403-.402 1.651-.656 2.52-.952-.234-1.862-.551-3.027-.276" transform="matrix(1.96878 0 0 1.96566 -677.928 -1115.911)"/><path fill="none" stroke="#000" stroke-linecap="round" d="M694.73 1174.705c-.53.932.021 1.08.614 1.207.317-2.477 2.328-1.778 3.323-2.413m-3.26 2.476s.042 1.207.296.974c1.46-1.376 3.98-3.281 3.98-3.281" transform="matrix(1.96878 0 0 1.96566 -677.928 -1115.911)"/><path fill="#d4b04a" fill-rule="evenodd" d="m704.052 1191.454-.25.124c-2.25.998-3.125 1.456-8.21 7.53.168-2.579 3.085-6.032 8.46-7.655z"/><path fill="none" stroke="#000" stroke-linecap="round" d="M697.778 1175.234c-.572 1.292-.614 2.794-.148 2.498 1.121-.74 1.883-3.09 4.19-3.768.826 0 1.588 1.143 1.61.614.041-.593.02-1.164-.826-1.693l-1.905.063c-.127-.932 1.122-2.477.614-3.196" transform="matrix(1.96878 0 0 1.96566 -677.928 -1115.911)"/><path fill="#fdfdfd" d="M679.507 1159.625c0 .999-.75 1.748-1.667 1.748-.875 0-1.625-.749-1.625-1.748 0-.956.75-1.747 1.625-1.747.917 0 1.667.79 1.667 1.747zm17.128-5.117c0 .957-.75 1.747-1.667 1.747s-1.626-.79-1.626-1.747c0-.999.709-1.79 1.626-1.79.917 0 1.667.791 1.667 1.79z"/></g></g></svg>